<?xml version="1.0" encoding="UTF-8"?>
<svg id="Layer_1" xmlns="http://www.w3.org/2000/svg" version="1.1" viewBox="0 0 1024 768">
  <!-- Generator: Adobe Illustrator 29.8.4, SVG Export Plug-In . SVG Version: 2.1.1 Build 6)  -->
  <defs>
    <style>
      .st0 {
        fill: #0e7031;
      }

      .st1 {
        fill: #195877;
      }

      .st2 {
        fill: #2276aa;
      }

      .st3 {
        fill: #a81b1b;
      }

      .st4 {
        fill: #d60f0f;
      }

      .st5 {
        fill: #bc1ee2;
      }

      .st6 {
        fill: #8a0ea8;
      }

      .st7 {
        fill: none;
        stroke: #fff;
        stroke-miterlimit: 10;
        stroke-width: 1.17px;
      }

      .st8 {
        fill: #fff;
      }

      .st9 {
        fill: #422905;
      }

      .st10 {
        fill: #f93;
      }

      .st11 {
        fill: #ff8a33;
      }

      .st12 {
        fill: #fcd4f9;
      }

      .st13 {
        fill: #e371ff;
      }

      .st14 {
        fill: #f7b90b;
      }

      .st15 {
        fill: #f9cf58;
      }

      .st16 {
        fill: #ffb031;
      }
    </style>
  </defs>
  <g id="Layer_1-2">
    <rect class="st12" width="1024" height="768"/>
    <rect class="st1" x="224.25" y="497.18" width="575.49" height="67.71" rx="33.85" ry="33.85"/>
    <path class="st2" d="M278.42,564.88h467.16c-20.31,67.71-40.63,135.41-60.93,203.12h-345.29c-20.31-67.71-40.63-135.41-60.93-203.12h-.01Z"/>
    <path class="st12" d="M667.72,720.61c-1.48,6.6-8.58,13.4-15.57,13.54h0c-6.71,0-10.91-6.09-9.34-13.54,7.58-36.11,15.17-72.22,22.75-108.33,1.99-8.02,9.64-13.36,17.74-13.54h0c8.2,0,13.37,6.09,11.51,13.54-9.03,36.11-18.05,72.22-27.08,108.33h-.02.01Z"/>
    <path class="st12" d="M626.79,720.61c-1.37,7.45-7.98,13.54-14.68,13.54h0c-6.71,0-11.31-6.09-10.24-13.54,5.21-36.11,10.42-72.22,15.63-108.33,1.44-8.03,8.91-13.4,16.85-13.54h0c8.2,0,13.77,6.09,12.4,13.54-6.65,36.11-13.31,72.22-19.96,108.33Z"/>
    <path class="st12" d="M585.85,720.61c-.89,7.45-7.09,13.54-13.8,13.54h0c-6.71,0-11.71-6.09-11.12-13.54,2.84-36.11,5.67-72.22,8.51-108.33.88-8.02,8.16-13.44,15.96-13.54h0c8.2,0,14.17,6.09,13.29,13.54-4.28,36.11-8.56,72.22-12.85,108.33h0Z"/>
    <path class="st12" d="M544.92,720.61c-.39,7.45-6.2,13.54-12.9,13.54h0c-6.71,0-12.11-6.09-12.02-13.54.46-36.11.93-72.22,1.4-108.33.31-7.98,7.39-13.49,15.07-13.54h0c7.04-.4,14.73,6.2,14.18,13.54-1.91,36.11-3.82,72.22-5.73,108.33h0Z"/>
    <path class="st12" d="M503.99,720.61c.09,7.45-5.31,13.54-12.02,13.54h0c-6.71,0-12.51-6.09-12.9-13.54-1.91-36.11-3.82-72.22-5.73-108.33-.55-7.34,7.14-13.94,14.18-13.54h0c7.68.05,14.76,5.55,15.07,13.54.46,36.11.93,72.22,1.4,108.33h0Z"/>
    <path class="st12" d="M463.06,720.61c.59,7.45-4.42,13.54-11.12,13.54h0c-6.71,0-12.91-6.09-13.8-13.54-4.28-36.11-8.56-72.22-12.85-108.33-.89-7.45,5.1-13.54,13.29-13.54h0c7.8.09,15.08,5.52,15.96,13.54,2.84,36.11,5.67,72.22,8.51,108.33h0Z"/>
    <path class="st12" d="M422.12,720.61c1.07,7.45-3.53,13.54-10.24,13.54h0c-6.71,0-13.31-6.09-14.68-13.54-6.65-36.11-13.31-72.22-19.96-108.33-1.37-7.45,4.2-13.54,12.4-13.54h0c7.94.14,15.41,5.51,16.85,13.54,5.21,36.11,10.42,72.22,15.63,108.33h0Z"/>
    <path class="st12" d="M381.19,720.61c1.56,7.45-2.64,13.54-9.34,13.54h0c-7-.14-14.09-6.94-15.57-13.54-9.03-36.11-18.05-72.22-27.08-108.33-1.86-7.45,3.32-13.54,11.51-13.54h0c8.09.18,15.75,5.52,17.74,13.54,7.58,36.11,15.17,72.22,22.75,108.33h-.02,0Z"/>
    <path class="st2" d="M278.42,564.88h467.16c-20.31,67.71-40.63,135.41-60.93,203.12h-345.29c-20.31-67.71-40.63-135.41-60.93-203.12h-.01Z"/>
    <path class="st12" d="M667.72,720.61c-1.48,6.6-8.58,13.4-15.57,13.54h0c-6.71,0-10.91-6.09-9.34-13.54,7.58-36.11,15.17-72.22,22.75-108.33,1.99-8.02,9.64-13.36,17.74-13.54h0c8.2,0,13.37,6.09,11.51,13.54-9.03,36.11-18.05,72.22-27.08,108.33h-.02.01Z"/>
    <path class="st12" d="M626.79,720.61c-1.37,7.45-7.98,13.54-14.68,13.54h0c-6.71,0-11.31-6.09-10.24-13.54,5.21-36.11,10.42-72.22,15.63-108.33,1.44-8.03,8.91-13.4,16.85-13.54h0c8.2,0,13.77,6.09,12.4,13.54-6.65,36.11-13.31,72.22-19.96,108.33Z"/>
    <path class="st12" d="M585.85,720.61c-.89,7.45-7.09,13.54-13.8,13.54h0c-6.71,0-11.71-6.09-11.12-13.54,2.84-36.11,5.67-72.22,8.51-108.33.88-8.02,8.16-13.44,15.96-13.54h0c8.2,0,14.17,6.09,13.29,13.54-4.28,36.11-8.56,72.22-12.85,108.33h0Z"/>
    <path class="st12" d="M544.92,720.61c-.39,7.45-6.2,13.54-12.9,13.54h0c-6.71,0-12.11-6.09-12.02-13.54.46-36.11.93-72.22,1.4-108.33.31-7.98,7.39-13.49,15.07-13.54h0c7.04-.4,14.73,6.2,14.18,13.54-1.91,36.11-3.82,72.22-5.73,108.33h0Z"/>
    <path class="st12" d="M503.99,720.61c.09,7.45-5.31,13.54-12.02,13.54h0c-6.71,0-12.51-6.09-12.9-13.54-1.91-36.11-3.82-72.22-5.73-108.33-.55-7.34,7.14-13.94,14.18-13.54h0c7.68.05,14.76,5.55,15.07,13.54.46,36.11.93,72.22,1.4,108.33h0Z"/>
    <path class="st12" d="M463.06,720.61c.59,7.45-4.42,13.54-11.12,13.54h0c-6.71,0-12.91-6.09-13.8-13.54-4.28-36.11-8.56-72.22-12.85-108.33-.89-7.45,5.1-13.54,13.29-13.54h0c7.8.09,15.08,5.52,15.96,13.54,2.84,36.11,5.67,72.22,8.51,108.33h0Z"/>
    <path class="st12" d="M422.12,720.61c1.07,7.45-3.53,13.54-10.24,13.54h0c-6.71,0-13.31-6.09-14.68-13.54-6.65-36.11-13.31-72.22-19.96-108.33-1.37-7.45,4.2-13.54,12.4-13.54h0c7.94.14,15.41,5.51,16.85,13.54,5.21,36.11,10.42,72.22,15.63,108.33h0Z"/>
    <path class="st12" d="M381.19,720.61c1.56,7.45-2.64,13.54-9.34,13.54h0c-7-.14-14.09-6.94-15.57-13.54-9.03-36.11-18.05-72.22-27.08-108.33-1.86-7.45,3.32-13.54,11.51-13.54h0c8.09.18,15.75,5.52,17.74,13.54,7.58,36.11,15.17,72.22,22.75,108.33h-.02,0Z"/>
  </g>
  <g id="segment-apple">
    <path class="st3" d="M342.62,272.17c4.22,26.72-4.73,66.06-25.78,84.96-10.02,9-19.43,13.42-29.43,12.71-8.22-.58-16.33,1.39-23.36,5.68-8.57,5.22-18.96,5.61-31.99,2.21-27.38-7.13-53.39-37.98-61.9-63.65-14.65-44.17.55-82.68,31.59-93.09,7.43-2.49,15.09-3.15,22.65-2.1.66.09,0,0,1.99.21q.89.09,0,0c7.23-1.26,17.98-3.12,23.26-5.88h0c.37-.24.73-.49,1.09-.74,6.23-4.4,13.34-7.34,21.08-8.53,32.35-5,63.53,22.25,70.78,68.21h.02Z"/>
    <path class="st4" d="M337.65,273.39c4.14,24.94-2.62,61.35-20.1,78.49-4.4,4.32-9.57,8-15.47,9.94-6.35,2.08-12.4,3.28-18.82,4.82-6.26,1.5-12.21,3.12-18.48,4.48s-12.87-.05-18.76-1.86c-23.39-7.21-46.11-36.46-53.88-60.52-13.36-41.39-1.28-76.9,24.85-85.93,6.25-2.16,12.74-2.61,19.18-1.47.57.1,1.13.18,1.71.24,6.11-1.02,13.63-2.8,19.63-4.98.31-.21.61-.44.91-.67,5.2-3.96,11.17-6.54,17.71-7.49,27.36-3.97,54.39,22.04,61.51,64.94h.01Z"/>
    <path class="st8" d="M295,219.48c4.92.81,9.5,3.39,13.43,6.4,10.07,7.75,16.1,19.69,19.04,31.82.54,3.22,1.32,6.56,1.49,9.81.5,5.72.29,11.53-.55,17.18-.92-3.18-1.61-6.33-2.24-9.46-.76-2.75-1.64-6.53-2.35-9.23-4.91-17.76-13.06-35.89-28.81-46.53h-.01Z"/>
    <path d="M231.44,218.15s-3.45-22.94-15.75-29.75l13.47-3.27s8.41,22.09,5.75,32.18"/>
  </g>
  <g id="segment-banana">
    <path class="st9" d="M673.56,101.39s-1.71-36.84-14.16-20.64c-5.15,6.7,0,18.94,0,18.94l14.16,1.7Z"/>
    <path class="st9" d="M343.06,91.03s-3.61-18.47,14.88-14.78c1.61.32-2.48,15.9-2.48,15.9l-12.4-1.12Z"/>
    <g>
      <path class="st14" d="M417.39,152.25c4.91,3.4,10,6.1,15.17,8.03,4.82,1.8,9.69,3.42,14.6,4.86,51.61,15.16,107.81,10.52,156.62-13.92,3.06-1.53,6.09-3.14,9.09-4.83,6.97-3.92,13.73-9.23,20.07-15.73,9.27-9.49,18.12-19.81,26.45-30.97v-18.94c-8.34,11.15-17.19,21.47-26.45,30.97-6.35,6.5-13.11,11.81-20.07,15.73-3,1.69-6.03,3.3-9.09,4.83-48.81,24.44-105.01,29.08-156.62,13.92-4.91-1.44-9.78-3.06-14.6-4.86-5.17-1.93-10.26-4.63-15.17-8.03-20.58-14.24-38.79-30.7-59.46-57.06,0,3.89-2.48,12.01-2.48,15.9,18.29,23.33,39.77,44.76,61.93,60.1h.01Z"/>
      <path class="st15" d="M659.4,99.7v1.24c-8,17.88-16.48,34.99-25.34,51.33-7.99,14.8-19.35,27.11-31.81,33.18h0c-48.45,23.77-104.01,28.16-155.09,13.16-14.7-4.28-28.53-14.9-39.36-29.26-18.58-24.54-36.72-46.82-52.35-77.2-2.7-.56-12.4-1.77-12.4-1.12,15.63,30.37,51.37,67.52,64.74,97.26,7.38,16.41,24.66,24.97,39.36,29.26,51.08,15,106.64,10.62,155.09-13.16h0c12.46-6.07,23.82-18.38,31.81-33.18,8.86-16.35,31.5-51.94,39.5-69.82-8.17-.5-8.92-1.23-14.16-1.7h.01Z"/>
      <path class="st15" d="M447.16,198.61c51.08,15,106.64,10.62,155.09-13.16h0c12.46-6.07,23.82-18.38,31.81-33.18,8.86-16.35,17.34-33.46,25.34-51.33v-1.24c-8.34,11.15-17.19,21.47-26.45,30.97-6.35,6.5-13.11,11.81-20.07,15.73-3,1.69-6.03,3.3-9.09,4.83-48.81,24.44-105.01,29.08-156.62,13.92-4.91-1.44-9.78-3.06-14.6-4.86-5.17-1.93-10.26-4.63-15.17-8.03-22.17-15.34-43.64-36.77-61.93-60.1,15.63,30.37,33.77,52.65,52.35,77.2,10.83,14.36,24.66,24.97,39.36,29.26h-.02Z"/>
    </g>
  </g>
  <g id="segment-orange">
    <path class="st11" d="M476.81,267.6c-3.82,1.2-7.51,2.58-11.09,4.13l33.43,67.23-22.35-71.36h.01Z"/>
    <path class="st10" d="M406.87,373.88c.52,2.44,1.14,4.87,1.9,7.29,14.53,46.41,68.55,70.8,120.66,54.48l-9.86-31.49c-42.94,16.43-89.86,3.78-112.7-30.28h0Z"/>
    <path class="st16" d="M529.44,399.85l-30.28-60.89,20.42,65.21c3.31-1.27,6.61-2.7,9.86-4.32h0Z"/>
    <path class="st16" d="M519.58,404.17l-20.42-65.21-33.43-67.23c-42.69,18.51-67.51,61.25-58.85,102.16,22.84,34.06,69.76,46.71,112.7,30.28Z"/>
    <ellipse class="st8" cx="504.84" cy="351.05" rx="60.98" ry="88.35" transform="translate(-103.5 261.5) rotate(-26.44)"/>
    <ellipse class="st16" cx="504.84" cy="351.05" rx="54.59" ry="79.09" transform="translate(-103.5 261.5) rotate(-26.44)"/>
    <line class="st7" x1="469.64" y1="280.21" x2="540.05" y2="421.86"/>
    <line class="st7" x1="455.96" y1="375.32" x2="553.73" y2="326.75"/>
    <line class="st7" x1="445.93" y1="314.9" x2="563.61" y2="387.96"/>
    <line class="st7" x1="498.36" y1="420.38" x2="511.17" y2="282.48"/>
  </g>
  <g id="segment-grapes">
    <ellipse class="st5" cx="743.08" cy="234.63" rx="46.35" ry="39.71" transform="translate(267.59 851.99) rotate(-69.92)"/>
    <path class="st6" d="M770.93,198.51c6.14,11.19,7.42,25.88,2.3,40.08-8.68,24.08-32.45,37.6-53.1,30.2-4.63-1.66-8.7-4.23-12.14-7.49,4.27,7.79,10.9,13.88,19.38,16.92,20.65,7.4,44.42-6.12,53.1-30.2,6.73-18.69,2.39-38.23-9.54-49.51h0Z"/>
    <path class="st13" d="M712.93,230.66c8.68-24.08,32.45-37.6,53.1-30.2,4.63,1.66,8.7,4.23,12.14,7.49-4.27-7.79-10.9-13.88-19.38-16.92-20.65-7.4-44.42,6.12-53.1,30.2-6.73,18.69-2.39,38.23,9.54,49.51-6.14-11.19-7.42-25.88-2.3-40.08h0Z"/>
    <ellipse class="st13" cx="736.65" cy="205.38" rx="4.9" ry="6.73" transform="translate(504.03 933.89) rotate(-87.87)"/>
    <ellipse class="st13" cx="726.59" cy="221.6" rx="5.24" ry="4.05" transform="translate(270.27 828.9) rotate(-70.04)"/>
    <circle class="st13" cx="738.17" cy="217.49" r="1.4"/>
    <ellipse class="st5" cx="797.64" cy="271.07" rx="46.35" ry="39.71" transform="translate(269.19 927.16) rotate(-69.92)"/>
    <path class="st6" d="M825.49,234.94c6.14,11.19,7.42,25.88,2.3,40.08-8.68,24.08-32.45,37.6-53.1,30.2-4.63-1.66-8.7-4.23-12.14-7.49,4.27,7.79,10.9,13.88,19.38,16.92,20.65,7.4,44.42-6.12,53.1-30.2,6.73-18.69,2.39-38.23-9.54-49.51h0Z"/>
    <path class="st13" d="M767.49,267.1c8.68-24.08,32.45-37.6,53.1-30.2,4.63,1.66,8.7,4.23,12.14,7.49-4.27-7.79-10.9-13.88-19.38-16.92-20.65-7.4-44.42,6.12-53.1,30.2-6.73,18.69-2.39,38.23,9.54,49.51-6.14-11.19-7.42-25.88-2.3-40.08h0Z"/>
    <ellipse class="st13" cx="791.2" cy="241.8" rx="4.9" ry="6.73" transform="translate(520.16 1023.47) rotate(-87.87)"/>
    <ellipse class="st13" cx="781.16" cy="258.03" rx="5.24" ry="4.05" transform="translate(271.97 904.18) rotate(-70.04)"/>
    <circle class="st13" cx="792.73" cy="253.93" r="1.4"/>
    <ellipse class="st5" cx="788.16" cy="324.15" rx="46.35" ry="39.71" transform="translate(213.11 953.11) rotate(-69.92)"/>
    <path class="st6" d="M816,288.04c6.14,11.19,7.42,25.88,2.3,40.08-8.68,24.08-32.45,37.6-53.1,30.2-4.63-1.66-8.7-4.23-12.14-7.49,4.27,7.79,10.9,13.88,19.38,16.92,20.65,7.4,44.42-6.12,53.1-30.2,6.73-18.69,2.39-38.23-9.54-49.51Z"/>
    <path class="st13" d="M758,320.19c8.68-24.08,32.45-37.6,53.1-30.2,4.63,1.66,8.7,4.23,12.14,7.49-4.27-7.79-10.9-13.88-19.38-16.92-20.65-7.4-44.42,6.12-53.1,30.2-6.73,18.69-2.39,38.23,9.54,49.51-6.14-11.19-7.42-25.88-2.3-40.08Z"/>
    <ellipse class="st13" cx="781.71" cy="294.9" rx="4.9" ry="6.73" transform="translate(457.96 1065.11) rotate(-87.87)"/>
    <ellipse class="st13" cx="771.67" cy="311.14" rx="5.24" ry="4.05" transform="translate(215.8 930.24) rotate(-70.04)"/>
    <circle class="st13" cx="783.24" cy="307.02" r="1.4"/>
    <ellipse class="st5" cx="680.49" cy="283.18" rx="46.35" ry="39.71" transform="translate(180.89 825.08) rotate(-69.92)"/>
    <path class="st6" d="M708.33,247.07c6.14,11.19,7.42,25.88,2.3,40.08-8.68,24.08-32.45,37.6-53.1,30.2-4.63-1.66-8.7-4.23-12.14-7.49,4.27,7.79,10.9,13.88,19.38,16.92,20.65,7.4,44.42-6.12,53.1-30.2,6.73-18.69,2.39-38.23-9.54-49.51h0Z"/>
    <path class="st13" d="M650.33,279.22c8.68-24.08,32.45-37.6,53.1-30.2,4.63,1.66,8.7,4.23,12.14,7.49-4.27-7.79-10.9-13.88-19.38-16.92-20.65-7.4-44.42,6.12-53.1,30.2-6.73,18.69-2.39,38.23,9.54,49.51-6.14-11.19-7.42-25.88-2.3-40.08h0Z"/>
    <ellipse class="st13" cx="674.05" cy="253.93" rx="4.9" ry="6.73" transform="translate(395.24 918.08) rotate(-87.87)"/>
    <ellipse class="st13" cx="663.99" cy="270.16" rx="5.24" ry="4.05" transform="translate(183.4 802.04) rotate(-70.04)"/>
    <circle class="st13" cx="675.56" cy="266.05" r="1.4"/>
    <ellipse class="st5" cx="734.05" cy="369.79" rx="46.35" ry="39.71" transform="translate(134.72 932.26) rotate(-69.92)"/>
    <path class="st6" d="M761.9,333.67c6.14,11.19,7.42,25.88,2.3,40.08-8.68,24.08-32.45,37.6-53.1,30.2-4.63-1.66-8.7-4.23-12.14-7.49,4.27,7.79,10.9,13.88,19.38,16.92,20.65,7.4,44.42-6.12,53.1-30.2,6.73-18.69,2.39-38.23-9.54-49.51Z"/>
    <path class="st13" d="M703.9,365.82c8.68-24.08,32.45-37.6,53.1-30.2,4.63,1.66,8.7,4.23,12.14,7.49-4.27-7.79-10.9-13.88-19.38-16.92-20.65-7.4-44.42,6.12-53.1,30.2-6.73,18.69-2.39,38.23,9.54,49.51-6.14-11.19-7.42-25.88-2.3-40.08Z"/>
    <ellipse class="st13" cx="727.62" cy="340.53" rx="4.9" ry="6.73" transform="translate(360.28 1054.99) rotate(-87.87)"/>
    <ellipse class="st13" cx="717.57" cy="356.77" rx="5.24" ry="4.05" transform="translate(137.28 909.45) rotate(-70.04)"/>
    <circle class="st13" cx="729.13" cy="352.65" r="1.4"/>
    <ellipse class="st5" cx="674.84" cy="353.02" rx="46.37" ry="39.69" transform="translate(-2.63 700.97) rotate(-54.8)"/>
    <path class="st6" d="M711.14,325.38c3.03,12.39.46,26.92-8.16,39.31-14.62,21.03-41.09,27.96-59.12,15.49-4.04-2.79-7.31-6.33-9.79-10.36,2.11,8.63,6.93,16.22,14.33,21.34,18.03,12.47,44.5,5.53,59.12-15.49,11.35-16.32,12.22-36.32,3.62-50.29h0Z"/>
    <path class="st13" d="M646.78,341.48c14.62-21.03,41.09-27.96,59.12-15.49,4.04,2.79,7.31,6.33,9.79,10.36-2.11-8.63-6.93-16.22-14.33-21.34-18.03-12.47-44.5-5.53-59.12,15.49-11.35,16.32-12.22,36.32-3.62,50.29-3.03-12.39-.46-26.92,8.16-39.31h0Z"/>
    <ellipse class="st13" cx="676.27" cy="323.18" rx="4.9" ry="6.73" transform="translate(169.59 875.51) rotate(-73.01)"/>
    <ellipse class="st13" cx="662.27" cy="336.16" rx="5.24" ry="4.05" transform="translate(6.92 685.62) rotate(-54.98)"/>
    <circle class="st13" cx="674.57" cy="335.27" r="1.4"/>
    <ellipse class="st5" cx="733.21" cy="297.18" rx="40.86" ry="32.99" transform="translate(203.28 884.62) rotate(-70.01)"/>
    <path class="st6" d="M757.12,265.13c4.95,9.7,5.78,22.55,1.27,35.07-7.65,21.23-27.75,33.46-44.9,27.32-3.84-1.38-7.21-3.56-10.03-6.36,3.45,6.75,8.89,11.98,15.93,14.51,17.15,6.15,37.25-6.08,44.9-27.32,5.94-16.48,2.62-33.53-7.17-43.21h0Z"/>
    <path class="st13" d="M708.08,294.23c7.65-21.23,27.75-33.46,44.9-27.32,3.84,1.38,7.21,3.56,10.03,6.36-3.45-6.75-8.89-11.98-15.93-14.51-17.15-6.15-37.25,6.08-44.9,27.32-5.94,16.48-2.62,33.53,7.17,43.21-4.95-9.7-5.78-22.55-1.27-35.07h0Z"/>
    <ellipse class="st13" cx="728.36" cy="271.74" rx="5.63" ry="4.29" transform="translate(-7.39 20.7) rotate(-1.62)"/>
    <ellipse class="st13" cx="719.6" cy="286.03" rx="4.62" ry="3.37" transform="translate(205.51 865.12) rotate(-70.08)"/>
    <ellipse class="st13" cx="729.38" cy="282.24" rx="1.23" ry="1.16" transform="translate(208.55 865.68) rotate(-69.4)"/>
    <polygon class="st0" points="781.94 218.74 803.51 183.15 813.24 199.48 797.58 225.98 783.52 230.1 781.94 218.74"/>
  </g>
</svg>