<?xml version="1.0" encoding="UTF-8"?>
<svg id="Layer_1" data-name="Layer 1" xmlns="http://www.w3.org/2000/svg" width="1024" height="768" viewBox="0 0 1024 768">
  <rect width="1024" height="768" fill="#fcd4f9"/>
  <g>
    <rect x="224.25" y="497.18" width="575.49" height="67.71" rx="33.85" ry="33.85" fill="#195877"/>
    <g>
      <path d="M278.42,564.88h467.16c-20.31,67.71-40.63,135.41-60.93,203.12h-345.29c-20.31-67.71-40.63-135.41-60.93-203.12h0Z" fill="#2276aa"/>
      <path d="M667.72,720.61c-1.48,6.6-8.58,13.4-15.57,13.54h0c-6.71,0-10.91-6.09-9.34-13.54,7.58-36.11,15.17-72.22,22.75-108.33,1.99-8.02,9.64-13.36,17.74-13.54h0c8.2,0,13.37,6.09,11.51,13.54-9.03,36.11-18.05,72.22-27.08,108.33h-.02Z" fill="#fcd4f9"/>
      <path d="M626.79,720.61c-1.37,7.45-7.98,13.54-14.68,13.54h0c-6.71,0-11.31-6.09-10.24-13.54,5.21-36.11,10.42-72.22,15.63-108.33,1.44-8.03,8.91-13.4,16.85-13.54h0c8.2,0,13.77,6.09,12.4,13.54-6.65,36.11-13.31,72.22-19.96,108.33Z" fill="#fcd4f9"/>
      <path d="M585.85,720.61c-.89,7.45-7.09,13.54-13.8,13.54h0c-6.71,0-11.71-6.09-11.12-13.54,2.84-36.11,5.67-72.22,8.51-108.33.88-8.02,8.16-13.44,15.96-13.54h0c8.2,0,14.17,6.09,13.29,13.54-4.28,36.11-8.56,72.22-12.85,108.33h0Z" fill="#fcd4f9"/>
      <path d="M544.92,720.61c-.39,7.45-6.2,13.54-12.9,13.54h0c-6.71,0-12.11-6.09-12.02-13.54.46-36.11.93-72.22,1.4-108.33.31-7.98,7.39-13.49,15.07-13.54h0c7.04-.4,14.73,6.2,14.18,13.54-1.91,36.11-3.82,72.22-5.73,108.33h0Z" fill="#fcd4f9"/>
      <path d="M503.99,720.61c.09,7.45-5.31,13.54-12.02,13.54h0c-6.71,0-12.51-6.09-12.9-13.54-1.91-36.11-3.82-72.22-5.73-108.33-.55-7.34,7.14-13.94,14.18-13.54h0c7.68.05,14.76,5.55,15.07,13.54.46,36.11.93,72.22,1.4,108.33h0Z" fill="#fcd4f9"/>
      <path d="M463.06,720.61c.59,7.45-4.42,13.54-11.12,13.54h0c-6.71,0-12.91-6.09-13.8-13.54-4.28-36.11-8.56-72.22-12.85-108.33-.89-7.45,5.1-13.54,13.29-13.54h0c7.8.09,15.08,5.52,15.96,13.54,2.84,36.11,5.67,72.22,8.51,108.33h0Z" fill="#fcd4f9"/>
      <path d="M422.12,720.61c1.07,7.45-3.53,13.54-10.24,13.54h0c-6.71,0-13.31-6.09-14.68-13.54-6.65-36.11-13.31-72.22-19.96-108.33-1.37-7.45,4.2-13.54,12.4-13.54h0c7.94.14,15.41,5.51,16.85,13.54,5.21,36.11,10.42,72.22,15.63,108.33Z" fill="#fcd4f9"/>
      <path d="M381.19,720.61c1.56,7.45-2.64,13.54-9.34,13.54h0c-7-.14-14.09-6.94-15.57-13.54-9.03-36.11-18.05-72.22-27.08-108.33-1.86-7.45,3.32-13.54,11.51-13.54h0c8.09.18,15.75,5.52,17.74,13.54,7.58,36.11,15.17,72.22,22.75,108.33h-.02Z" fill="#fcd4f9"/>
    </g>
    <g>
      <path d="M278.42,564.88h467.16c-20.31,67.71-40.63,135.41-60.93,203.12h-345.29c-20.31-67.71-40.63-135.41-60.93-203.12h0Z" fill="#2276aa"/>
      <path d="M667.72,720.61c-1.48,6.6-8.58,13.4-15.57,13.54h0c-6.71,0-10.91-6.09-9.34-13.54,7.58-36.11,15.17-72.22,22.75-108.33,1.99-8.02,9.64-13.36,17.74-13.54h0c8.2,0,13.37,6.09,11.51,13.54-9.03,36.11-18.05,72.22-27.08,108.33h-.02Z" fill="#fcd4f9"/>
      <path d="M626.79,720.61c-1.37,7.45-7.98,13.54-14.68,13.54h0c-6.71,0-11.31-6.09-10.24-13.54,5.21-36.11,10.42-72.22,15.63-108.33,1.44-8.03,8.91-13.4,16.85-13.54h0c8.2,0,13.77,6.09,12.4,13.54-6.65,36.11-13.31,72.22-19.96,108.33Z" fill="#fcd4f9"/>
      <path d="M585.85,720.61c-.89,7.45-7.09,13.54-13.8,13.54h0c-6.71,0-11.71-6.09-11.12-13.54,2.84-36.11,5.67-72.22,8.51-108.33.88-8.02,8.16-13.44,15.96-13.54h0c8.2,0,14.17,6.09,13.29,13.54-4.28,36.11-8.56,72.22-12.85,108.33h0Z" fill="#fcd4f9"/>
      <path d="M544.92,720.61c-.39,7.45-6.2,13.54-12.9,13.54h0c-6.71,0-12.11-6.09-12.02-13.54.46-36.11.93-72.22,1.4-108.33.31-7.98,7.39-13.49,15.07-13.54h0c7.04-.4,14.73,6.2,14.18,13.54-1.91,36.11-3.82,72.22-5.73,108.33h0Z" fill="#fcd4f9"/>
      <path d="M503.99,720.61c.09,7.45-5.31,13.54-12.02,13.54h0c-6.71,0-12.51-6.09-12.9-13.54-1.91-36.11-3.82-72.22-5.73-108.33-.55-7.34,7.14-13.94,14.18-13.54h0c7.68.05,14.76,5.55,15.07,13.54.46,36.11.93,72.22,1.4,108.33h0Z" fill="#fcd4f9"/>
      <path d="M463.06,720.61c.59,7.45-4.42,13.54-11.12,13.54h0c-6.71,0-12.91-6.09-13.8-13.54-4.28-36.11-8.56-72.22-12.85-108.33-.89-7.45,5.1-13.54,13.29-13.54h0c7.8.09,15.08,5.52,15.96,13.54,2.84,36.11,5.67,72.22,8.51,108.33h0Z" fill="#fcd4f9"/>
      <path d="M422.12,720.61c1.07,7.45-3.53,13.54-10.24,13.54h0c-6.71,0-13.31-6.09-14.68-13.54-6.65-36.11-13.31-72.22-19.96-108.33-1.37-7.45,4.2-13.54,12.4-13.54h0c7.94.14,15.41,5.51,16.85,13.54,5.21,36.11,10.42,72.22,15.63,108.33Z" fill="#fcd4f9"/>
      <path d="M381.19,720.61c1.56,7.45-2.64,13.54-9.34,13.54h0c-7-.14-14.09-6.94-15.57-13.54-9.03-36.11-18.05-72.22-27.08-108.33-1.86-7.45,3.32-13.54,11.51-13.54h0c8.09.18,15.75,5.52,17.74,13.54,7.58,36.11,15.17,72.22,22.75,108.33h-.02Z" fill="#fcd4f9"/>
    </g>
  </g>
</svg>